<?xml version="1.0" encoding="UTF-8"?>
<!DOCTYPE svg PUBLIC "-//W3C//DTD SVG 1.1//EN" "http://www.w3.org/Graphics/SVG/1.1/DTD/svg11.dtd">
<!-- Creator: CorelDRAW -->
<svg xmlns="http://www.w3.org/2000/svg" xml:space="preserve" width="52.2616mm" height="14.7165mm" version="1.1" style="shape-rendering:geometricPrecision; text-rendering:geometricPrecision; image-rendering:optimizeQuality; fill-rule:evenodd; clip-rule:evenodd"
viewBox="0 0 2474.02 696.67"
 xmlns:xlink="http://www.w3.org/1999/xlink"
 xmlns:xodm="http://www.corel.com/coreldraw/odm/2003">
 <defs>
  <style type="text/css">
   <![CDATA[
    .fil0 {fill:url(#id0)}
    .fil1 {fill:url(#id1);fill-opacity:0.149020}
   ]]>
  </style>
  <linearGradient id="id0" gradientUnits="objectBoundingBox" x1="0%" y1="6.69485%" x2="124.793%" y2="106.211%">
   <stop offset="0" style="stop-opacity:1; stop-color:#F2D396"/>
   <stop offset="1" style="stop-opacity:1; stop-color:#D2A547"/>
  </linearGradient>
  <linearGradient id="id1" gradientUnits="userSpaceOnUse" xlink:href="#id0" x1="1263.97" y1="-393.71" x2="1924.38" y2="1177.32">
  </linearGradient>
 </defs>
 <g id="Layer_x0020_1">
  <metadata id="CorelCorpID_0Corel-Layer"/>
  <g id="_2681024061632">
   <path class="fil0" d="M501.77 23.67l-313.74 0c-45.18,0 -86.28,18.5 -116.07,48.29 -29.79,29.79 -48.29,70.88 -48.29,116.06l0 320.62c0,45.18 18.5,86.27 48.29,116.06 29.79,29.79 70.89,48.29 116.07,48.29l313.74 0c45.18,0 86.27,-18.5 116.06,-48.29 29.79,-29.79 48.29,-70.88 48.29,-116.06l0 -320.62c0,-45.18 -18.5,-86.27 -48.29,-116.06 -29.79,-29.79 -70.88,-48.29 -116.06,-48.29zm-313.74 -23.67l313.74 0c51.72,0 98.73,21.15 132.8,55.22 34.07,34.07 55.22,81.08 55.22,132.8l0 320.62c0,51.72 -21.15,98.74 -55.22,132.8 -34.07,34.07 -81.08,55.22 -132.8,55.22l-313.74 0c-51.72,0 -98.74,-21.15 -132.81,-55.22 -34.07,-34.07 -55.22,-81.08 -55.22,-132.8l0 -320.62c0,-51.72 21.15,-98.73 55.22,-132.8 34.07,-34.07 81.09,-55.22 132.81,-55.22z"/>
   <path class="fil0" d="M290.93 205.76l0 286.97 -71.27 0 0 -207.58 -51.72 39.97c-12.45,-16.91 -24.85,-33.89 -37.2,-50.88l95.78 -70.28 64.42 0 0 1.8zm259.35 226.36l0 60.61 -209.83 0 0 -58.98 111.74 -101.22c6.92,-6.53 12.66,-13.06 16.63,-20.02 3.92,-6.87 6.15,-14.24 6.15,-22.57 0,-9.62 -3.37,-17.78 -9.27,-23.48 -5.85,-5.65 -14.24,-8.95 -24.37,-8.95 -10.53,0 -19.31,4.06 -25.82,11.03 -6.85,7.33 -11.27,17.93 -12.66,30.47l-0.2 1.83 -68.42 -9.35 0.19 -1.74c3.19,-28.53 16.11,-51.43 35.05,-67.43 19.94,-16.83 46.54,-26 75.49,-26 28.46,0 56.5,8.13 76.41,25.01 17.33,14.68 28.51,35.96 28.51,64.2 0,20.73 -6.06,37.18 -15.46,51.4 -9.33,14.12 -21.92,25.99 -35.1,37.75l-62.52 55.66 113.48 0 0 1.8z"/>
  </g>
  <path class="fil1" d="M513.8 11.47l1854.06 0c58.38,0 106.15,47.78 106.15,106.15l0 461.41c0,58.37 -47.77,106.15 -106.15,106.15l-1862.73 0c6.81,-3.27 11.28,-6.14 11.28,-8.04 0,-8.04 76.41,-16.98 76.41,-16.98l37.88 -36.57c0,0 43.1,-68.58 45.06,-72.49 1.96,-3.91 3.27,-72.49 3.27,-72.49l0.65 -203.1 -4.57 -139.75 -60.08 -82.94 -101.23 -41.34z"/>
 </g>
</svg>
