<?xml version="1.0" encoding="utf-8"?>
<!-- Generator: Adobe Illustrator 27.5.0, SVG Export Plug-In . SVG Version: 6.00 Build 0)  -->
<svg version="1.1" xmlns="http://www.w3.org/2000/svg" xmlns:xlink="http://www.w3.org/1999/xlink" x="0px" y="0px"
	 viewBox="0 0 500 500" style="enable-background:new 0 0 500 500;" xml:space="preserve">
<g id="Background_Simple">
	<g>
		<path style="fill:#C6FF00;" d="M49,257.961c0,0,2.289,70.947,61.513,118.234c59.225,47.287,141.291,50.674,207.728,55.166
			c66.437,4.492,117.467-33.118,125.158-89.971c7.691-56.852-43.075-73.542-70.619-138.258
			c-27.544-64.717-25.093-85.989-83.373-125.793c-58.28-39.803-149.449-15.362-197.249,52.827C44.358,198.356,49,257.961,49,257.961
			z"/>
		<path style="opacity:0.7;fill:#FFFFFF;" d="M49,257.961c0,0,2.289,70.947,61.513,118.234
			c59.225,47.287,141.291,50.674,207.728,55.166c66.437,4.492,117.467-33.118,125.158-89.971
			c7.691-56.852-43.075-73.542-70.619-138.258c-27.544-64.717-25.093-85.989-83.373-125.793
			c-58.28-39.803-149.449-15.362-197.249,52.827C44.358,198.356,49,257.961,49,257.961z"/>
	</g>
</g>
<g id="Hole">
	<g>
		<g>
			
				<ellipse style="fill:#263238;stroke:#263238;stroke-width:1.1599;stroke-linecap:round;stroke-linejoin:round;stroke-miterlimit:10;" cx="337.937" cy="382.062" rx="70.2" ry="20.831"/>
			
				<path style="fill:#FFFFFF;stroke:#263238;stroke-width:1.1599;stroke-linecap:round;stroke-linejoin:round;stroke-miterlimit:10;" d="
				M337.937,370.814c33.211,0,61.016,6.846,68.313,16.04c1.221-1.539,1.887-3.142,1.887-4.791c0-11.505-31.43-20.831-70.2-20.831
				s-70.2,9.326-70.2,20.831c0,1.65,0.666,3.252,1.887,4.791C276.921,377.659,304.726,370.814,337.937,370.814z"/>
		</g>
		<g>
			
				<path style="fill:none;stroke:#FFFFFF;stroke-width:1.1599;stroke-linecap:round;stroke-linejoin:round;stroke-miterlimit:10;" d="
				M328.355,400.275c-23.447-1.062-41.145-5.864-41.145-11.628c0-0.604,0.194-1.197,0.569-1.776"/>
			
				<path style="fill:none;stroke:#FFFFFF;stroke-width:1.1599;stroke-linecap:round;stroke-linejoin:round;stroke-miterlimit:10;" d="
				M382.777,382.935c4.016,1.694,6.302,3.641,6.302,5.712c0,6.543-22.804,11.846-50.935,11.846c-0.405,0-0.808-0.001-1.211-0.003"/>
			
				<path style="fill:none;stroke:#FFFFFF;stroke-width:1.1599;stroke-linecap:round;stroke-linejoin:round;stroke-miterlimit:10;" d="
				M294.065,382.708c8.817-3.532,25.256-5.907,44.08-5.907c12.089,0,23.195,0.979,31.929,2.616"/>
			
				<path style="fill:none;stroke:#FFFFFF;stroke-width:1.1599;stroke-linecap:round;stroke-linejoin:round;stroke-miterlimit:10;" d="
				M327.685,392.715c-5.939-0.828-9.914-2.34-9.914-4.067c0-2.617,9.122-4.738,20.374-4.738c11.252,0,20.374,2.121,20.374,4.738
				c0,2.245-6.71,4.125-15.72,4.615"/>
		</g>
	</g>
</g>
<g id="Landscape">
	<g>
		
			<path style="fill:none;stroke:#263238;stroke-width:1.1599;stroke-linecap:round;stroke-linejoin:round;stroke-miterlimit:10;" d="
			M56.015,298.34c30.613-8.694,95.035-25.866,130.587-27.158c47.761-1.737,128.521,32.999,178.888,39.077s84.233,4.342,84.233,4.342
			"/>
		
			<path style="fill:none;stroke:#263238;stroke-width:1.1599;stroke-linecap:round;stroke-linejoin:round;stroke-miterlimit:10;" d="
			M38.976,303.311c0,0,2.646-0.805,7.283-2.161"/>
		
			<path style="fill:none;stroke:#263238;stroke-width:1.1599;stroke-linecap:round;stroke-linejoin:round;stroke-miterlimit:10;" d="
			M436.119,249.187c-12.327-2.7-31.806-5.823-53.765-5.087c-37.358,1.251-77.746,6.197-127.764,12.639
			c-50.018,6.442-121.17-29.162-169.568-15.954c-48.398,13.208-44.744,17.192-44.744,17.192"/>
		
			<path style="fill:none;stroke:#263238;stroke-width:1.1599;stroke-linecap:round;stroke-linejoin:round;stroke-miterlimit:10;" d="
			M449.891,252.764c0,0-1.886-0.62-5.299-1.53"/>
	</g>
</g>
<g id="Clouds">
	<g>
		<g>
			
				<path style="fill:none;stroke:#263238;stroke-width:1.1599;stroke-linecap:round;stroke-linejoin:round;stroke-miterlimit:10;" d="
				M360.261,160.936c-1.077-4.402-5.037-7.673-9.771-7.673c-4.734,0-8.694,3.271-9.771,7.673H360.261z"/>
			
				<path style="fill:none;stroke:#263238;stroke-width:1.1599;stroke-linecap:round;stroke-linejoin:round;stroke-miterlimit:10;" d="
				M459,160.936c-1.195-5.047-5.448-8.909-10.701-9.505c0.322-1.739,0.499-3.529,0.499-5.361c0-16.156-13.097-29.253-29.252-29.253
				c-14.399,0-26.36,10.407-28.792,24.108c-3.172-2.477-7.153-3.967-11.49-3.967c-10.329,0-18.702,8.373-18.702,18.702
				c0,1.834,0.275,3.601,0.767,5.275H459z"/>
		</g>
		<g>
			
				<path style="fill:none;stroke:#263238;stroke-width:1.1599;stroke-linecap:round;stroke-linejoin:round;stroke-miterlimit:10;" d="
				M186.34,184.398c-0.547-2.235-2.557-3.895-4.96-3.895c-2.403,0-4.413,1.66-4.96,3.895H186.34z"/>
			
				<path style="fill:none;stroke:#263238;stroke-width:1.1599;stroke-linecap:round;stroke-linejoin:round;stroke-miterlimit:10;" d="
				M236.463,184.398c-0.607-2.562-2.765-4.522-5.432-4.825c0.164-0.883,0.253-1.792,0.253-2.722c0-8.201-6.648-14.85-14.85-14.85
				c-7.31,0-13.381,5.283-14.616,12.238c-1.61-1.257-3.631-2.014-5.833-2.014c-5.243,0-9.494,4.251-9.494,9.494
				c0,0.931,0.14,1.828,0.389,2.678H236.463z"/>
		</g>
		<g>
			
				<path style="fill:none;stroke:#263238;stroke-width:1.1599;stroke-linecap:round;stroke-linejoin:round;stroke-miterlimit:10;" d="
				M231.417,200.092c-0.345-1.41-1.614-2.458-3.131-2.458c-1.517,0-2.786,1.048-3.131,2.458H231.417z"/>
			
				<path style="fill:none;stroke:#263238;stroke-width:1.1599;stroke-linecap:round;stroke-linejoin:round;stroke-miterlimit:10;" d="
				M263.053,200.092c-0.383-1.617-1.746-2.854-3.429-3.045c0.103-0.557,0.16-1.131,0.16-1.718c0-5.176-4.196-9.373-9.373-9.373
				c-4.613,0-8.446,3.334-9.225,7.724c-1.016-0.794-2.292-1.271-3.681-1.271c-3.309,0-5.992,2.683-5.992,5.992
				c0,0.587,0.088,1.154,0.246,1.69H263.053z"/>
		</g>
	</g>
</g>
<g id="Character">
	<g>
		<g>
			<path style="fill:#263238;" d="M164.064,312.098c-0.319,0-0.642-0.083-0.938-0.256c-0.894-0.528-1.198-1.692-0.679-2.602
				c0.476-0.834,120.689-131.925,175.693-179.998c0.392-0.342,0.983-0.296,1.319,0.102c0.337,0.398,0.292,0.999-0.1,1.342
				c-54.766,47.866-173.202,179.637-173.675,180.466C165.338,311.759,164.71,312.098,164.064,312.098z"/>
			<g>
				
					<path style="fill:#C6FF00;stroke:#263238;stroke-width:1.1599;stroke-linecap:round;stroke-linejoin:round;stroke-miterlimit:10;" d="
					M170.698,285.997c0,0,5.962-6.359,9.539-6.359c3.577,0,10.334,5.962,9.936,9.141c-0.397,3.18-6.359,0.397-6.359,0.397
					s-5.564,7.552-11.129,6.359C167.121,294.344,170.698,285.997,170.698,285.997z"/>
				
					<path style="fill:#C6FF00;stroke:#263238;stroke-width:1.1599;stroke-linecap:round;stroke-linejoin:round;stroke-miterlimit:10;" d="
					M183.814,289.177c0,0,3.648,2.522,3.972,4.303c0.324,1.781-4.047,6.799-8.903,7.932c-4.856,1.133-7.446-1.619-5.989-4.209
					C174.351,294.613,180.166,289.407,183.814,289.177z"/>
			</g>
		</g>
		
			<path style="fill:none;stroke:#263238;stroke-width:1.1599;stroke-linecap:round;stroke-linejoin:round;stroke-miterlimit:10;" d="
			M333.583,266.142V134.601c0,0-2.653,9.522-2.653,10.209"/>
		<g>
			
				<rect x="287.569" y="273.076" style="fill:#C6FF00;stroke:#263238;stroke-width:1.1599;stroke-linecap:round;stroke-linejoin:round;stroke-miterlimit:10;" width="100.868" height="80.82"/>
		</g>
		<g>
			<path style="fill:#263238;" d="M335.017,272.731v-4.624c0-0.641-0.519-1.16-1.16-1.16c-0.641,0-1.16,0.519-1.16,1.16v4.624
				H335.017z"/>
			<path style="fill:#263238;" d="M344.311,261.474l-0.019,0.231c-0.201-0.344-0.559-0.587-0.987-0.587
				c-0.641,0-1.16,0.519-1.16,1.16v12.363c0,1.965-1.598,3.565-3.564,3.565c-0.505,0-0.985-0.109-1.421-0.299
				c-0.31,0.449-0.615,1.315,0.298,2.506c0.364,0.071,0.738,0.113,1.122,0.113c3.244,0,5.883-2.639,5.883-5.885v-5.729h2.66
				L344.311,261.474z"/>
		</g>
		
			<path style="fill:none;stroke:#263238;stroke-width:1.1599;stroke-linecap:round;stroke-linejoin:round;stroke-miterlimit:10;" d="
			M333.677,133.367c0,0,2.06-7.324,0.229-6.637C332.075,127.416,333.677,133.367,333.677,133.367z"/>
		
			<path style="fill:none;stroke:#263238;stroke-width:1.1599;stroke-linecap:round;stroke-linejoin:round;stroke-miterlimit:10;" d="
			M333.677,133.367c0,0-7.782-2.746-7.095-0.229C327.269,135.655,333.677,133.367,333.677,133.367z"/>
	</g>
	<g>
		<g>
			
				<path style="fill:#263238;stroke:#263238;stroke-width:1.1599;stroke-linecap:round;stroke-linejoin:round;stroke-miterlimit:10;" d="
				M165.947,197.18c0,0-9.601-5.377-28.419-2.688c-18.818,2.688-22.41,18.214-19.338,34.344
				c3.072,16.13,20.874,29.791,23.562,28.639c2.688-1.152-0.768-37.253,5.377-44.165c6.145-6.913,26.115-5.761,27.267-11.137
				C175.549,196.796,165.947,197.18,165.947,197.18z"/>
			
				<path style="fill:#757575;stroke:#263238;stroke-width:1.1599;stroke-linecap:round;stroke-linejoin:round;stroke-miterlimit:10;" d="
				M132.494,206.76l1.955,12.708c0,0-12.056,32.91-10.101,37.472c1.955,4.562,20.202,6.191,20.202,6.191s29.651,3.584,38.449,0
				c8.798-3.584,4.236-14.011,3.258-16.944c-0.977-2.932-6.517-26.393-6.517-26.393s1.955-5.539,1.955-8.472
				c0-2.932-0.326-11.079-1.629-13.034c-1.303-1.955-24.112-4.236-34.213-2.607C135.753,197.31,131.191,199.917,132.494,206.76z"/>
			<g>
				
					<path style="fill:#FFFFFF;stroke:#263238;stroke-width:1.1599;stroke-linecap:round;stroke-linejoin:round;stroke-miterlimit:10;" d="
					M137.708,221.423c0,0-0.326,28.348,1.303,33.887c1.629,5.539,8.146,12.056,21.831,10.427
					c13.685-1.629,14.989-14.663,14.989-14.663l-0.978-30.303L137.708,221.423z"/>
				<circle style="fill:none;stroke:#263238;stroke-width:1.1599;stroke-miterlimit:10;" cx="158.724" cy="241.788" r="2.444"/>
				<path style="fill:#263238;" d="M160.842,252.052c0,0.9-0.729,1.629-1.629,1.629c-0.9,0-1.629-0.729-1.629-1.629
					c0-0.9,0.73-1.629,1.629-1.629C160.113,250.422,160.842,251.152,160.842,252.052z"/>
				<path style="fill:#263238;" d="M151,231.339c1.043,1.119,1.407,2.474,0.815,3.026c-0.593,0.552-1.918,0.092-2.961-1.027
					c-1.042-1.119-1.407-2.474-0.815-3.026C148.632,229.76,149.957,230.22,151,231.339z"/>
				<path style="fill:#263238;" d="M164.236,231.339c-1.043,1.119-1.407,2.474-0.815,3.026c0.593,0.552,1.918,0.092,2.961-1.027
					c1.042-1.119,1.407-2.474,0.815-3.026S165.278,230.22,164.236,231.339z"/>
				
					<path style="fill:none;stroke:#263238;stroke-width:1.1599;stroke-linecap:round;stroke-linejoin:round;stroke-miterlimit:10;" d="
					M144.039,227.494c0,0,2.147-3.578,6.799-2.505"/>
				
					<path style="fill:none;stroke:#263238;stroke-width:1.1599;stroke-linecap:round;stroke-linejoin:round;stroke-miterlimit:10;" d="
					M163.719,225.347c0,0,4.652-1.431,6.083,2.505"/>
			</g>
		</g>
		<g>
			
				<path style="fill:#263238;stroke:#263238;stroke-width:1.1599;stroke-linecap:round;stroke-linejoin:round;stroke-miterlimit:10;" d="
				M179.411,407.181c0,0,5.124-3.074,7.96-4.282c0.301-0.128,0.577-0.236,0.817-0.316c2.508-0.836,9.614-0.418,16.302-4.598
				c6.688-4.18,3.344-9.196-1.672-10.45c-5.016-1.254-10.45-2.926-10.45-2.926l-1.254-19.646c0,0-15.048,4.18-20.064,6.27
				c-5.016,2.09-2.09,31.767-1.672,34.276C169.797,408.017,169.797,409.689,179.411,407.181z"/>
			
				<path style="fill:#FFFFFF;stroke:#263238;stroke-width:1.1599;stroke-linecap:round;stroke-linejoin:round;stroke-miterlimit:10;" d="
				M196.131,397.985c-8.778,1.672-8.778,3.344-18.392,5.016c-4.081,0.71-6.796,0.815-8.581,0.703
				c0.095,0.887,0.174,1.524,0.221,1.805c0.418,2.508,0.418,4.18,10.032,1.672c0,0,5.124-3.074,7.96-4.282
				c0.301-0.128,0.577-0.236,0.817-0.316c2.508-0.836,9.614-0.418,16.302-4.598c2.143-1.339,3.246-2.763,3.604-4.123
				C204.985,395.36,200.675,397.119,196.131,397.985z"/>
		</g>
		<g>
			<g>
				
					<path style="fill:#263238;stroke:#263238;stroke-width:1.1599;stroke-linecap:round;stroke-linejoin:round;stroke-miterlimit:10;" d="
					M199.617,387.276c0,0-0.326,22.809-0.977,27.696c-0.652,4.888,0.326,11.079,7.82,11.079c7.494,0,22.157-4.887,27.371-5.865
					c5.213-0.978,13.685-3.258,17.27-11.405c3.584-8.146-18.247-7.168-18.247-7.168l1.303-16.618
					C234.157,384.995,211.674,389.557,199.617,387.276z"/>
				
					<path style="fill:#FFFFFF;stroke:#263238;stroke-width:1.1599;stroke-linecap:round;stroke-linejoin:round;stroke-miterlimit:10;" d="
					M251.1,408.781c0.431-0.978,0.487-1.822,0.266-2.554c-1.626,2.231-4.366,4.969-8.738,6.79
					c-7.82,3.259-22.483,6.843-33.562,8.472c-5.064,0.744-8.275-0.08-10.285-1.191c0.716,3.155,2.827,5.752,7.678,5.752
					c7.494,0,22.157-4.888,27.371-5.865C239.044,419.208,247.516,416.927,251.1,408.781z"/>
				
					<path style="fill:none;stroke:#FFFFFF;stroke-width:1.1599;stroke-linecap:round;stroke-linejoin:round;stroke-miterlimit:10;" d="
					M232.853,401.613c0,0,1.629,5.539-2.933,9.124"/>
			</g>
			
				<path style="fill:#757575;stroke:#263238;stroke-width:1.1599;stroke-linecap:round;stroke-linejoin:round;stroke-miterlimit:10;" d="
				M197.337,375.22c0,0-0.503,9.912,0.048,11.898c2.09,7.524,2.751,5.76,18.392,5.434c15.64-0.326,21.965-6.579,23.594-10.489
				c1.629-3.91,0-12.382-0.652-15.315c-0.652-2.932-5.865-3.91-7.82-3.584C228.943,363.489,198.314,371.961,197.337,375.22z"/>
		</g>
		<g>
			<g>
				<defs>
					<path id="XMLID_1_" d="M89.809,399.983v21.901c0,1.759,0.981,3.37,2.544,4.177l35.196,18.175
						c1.272,0.657,2.773,0.698,4.08,0.113l51.852-19.764c1.69-0.758,2.778-2.437,2.778-4.289v-26.503l-59.303,17.921L89.809,399.983
						z"/>
				</defs>
				<use xlink:href="#XMLID_1_"  style="overflow:visible;fill:#C6FF00;"/>
				<clipPath id="XMLID_00000033368323019865371410000012050761782143841973_">
					<use xlink:href="#XMLID_1_"  style="overflow:visible;"/>
				</clipPath>
				<path id="XMLID_2_" style="opacity:0.18;clip-path:url(#XMLID_00000033368323019865371410000012050761782143841973_);" d="
					M129.562,410.926l-2.607,0.788l-37.146-11.73v21.901c0,1.759,0.981,3.37,2.544,4.177l35.196,18.175
					c0.632,0.326,1.32,0.499,2.013,0.52V410.926z"/>
				
					<use xlink:href="#XMLID_1_"  style="overflow:visible;fill:none;stroke:#263238;stroke-width:1.1599;stroke-linecap:round;stroke-linejoin:round;stroke-miterlimit:10;"/>
			</g>
			<g>
				<defs>
					<path id="XMLID_3_" d="M143.985,363.019l-56.878,18.226c-0.913,0.293-1.533,1.142-1.533,2.101v16.222
						c0,0.851,0.489,1.626,1.257,1.992l39.605,18.874c0.54,0.257,1.161,0.284,1.722,0.075l59.599-22.271
						c0.863-0.322,1.434-1.146,1.434-2.067l0.105-15.212c0-1.037-0.722-1.934-1.735-2.156l-42.431-15.839
						C144.751,362.881,144.355,362.9,143.985,363.019z"/>
				</defs>
				<use xlink:href="#XMLID_3_"  style="overflow:visible;fill:#FFFFFF;"/>
				<clipPath id="XMLID_00000040546918355765949780000005844914720822673803_">
					<use xlink:href="#XMLID_3_"  style="overflow:visible;"/>
				</clipPath>
				<path style="clip-path:url(#XMLID_00000040546918355765949780000005844914720822673803_);fill:#C6FF00;" d="M126.416,420.425
					l0.02,0.009c0.54,0.257,1.161,0.284,1.722,0.075l59.599-22.271c0.863-0.322,1.434-1.146,1.434-2.067l0.105-15.212
					c0-0.534-0.194-1.029-0.518-1.416l-61.497,22.721L126.416,420.425z"/>
				<path style="opacity:0.5;clip-path:url(#XMLID_00000040546918355765949780000005844914720822673803_);fill:#FFFFFF;" d="
					M126.416,420.425l0.02,0.009c0.54,0.257,1.161,0.284,1.722,0.075l59.599-22.271c0.863-0.322,1.434-1.146,1.434-2.067
					l0.105-15.212c0-0.534-0.194-1.029-0.518-1.416l-61.497,22.721L126.416,420.425z"/>
				<path style="clip-path:url(#XMLID_00000040546918355765949780000005844914720822673803_);fill:#C6FF00;" d="M85.573,383.346
					v16.222c0,0.851,0.489,1.626,1.257,1.992l39.605,18.874c0.268,0.127,0.555,0.198,0.845,0.211v-18.382l-41.647-19.293
					C85.611,383.096,85.573,383.216,85.573,383.346z"/>
				
					<use xlink:href="#XMLID_3_"  style="overflow:visible;fill:none;stroke:#263238;stroke-width:1.1599;stroke-linecap:round;stroke-linejoin:round;stroke-miterlimit:10;"/>
			</g>
		</g>
		<g>
			
				<path style="fill:#263238;stroke:#263238;stroke-width:1.1599;stroke-linecap:round;stroke-linejoin:round;stroke-miterlimit:10;" d="
				M222.1,333.186c0,0,7.494,3.584,11.405,10.753c3.91,7.168,0.977,20.854-1.303,25.09c-2.281,4.236-17.595,6.191-22.809,6.191
				c-5.214,0-6.191-0.652-6.191-0.652s-16.618,3.258-27.045,5.213c-10.427,1.955-7.82-22.483-4.562-33.562
				c3.258-11.079,21.505-16.618,29-16.618C208.089,329.602,222.1,333.186,222.1,333.186z"/>
			
				<path style="fill:none;stroke:#FFFFFF;stroke-width:1.1599;stroke-linecap:round;stroke-linejoin:round;stroke-miterlimit:10;" d="
				M203.202,374.568c0,0,14.011-4.888,19.876-17.27"/>
			
				<path style="fill:none;stroke:#FFFFFF;stroke-width:1.1599;stroke-linecap:round;stroke-linejoin:round;stroke-miterlimit:10;" d="
				M216.561,367.399c0,0,6.191-2.281,12.056-8.146"/>
		</g>
		
			<path style="fill:#757575;stroke:#263238;stroke-width:1.1599;stroke-linecap:round;stroke-linejoin:round;stroke-miterlimit:10;" d="
			M183.651,343.939c0,0,3.91,20.528,1.955,29c-1.955,8.472-13.359,9.775-15.966,8.798c-2.607-0.977-1.303-21.18-1.303-31.281
			C168.337,340.354,178.438,341.006,183.651,343.939z"/>
		<g>
			<g>
				<defs>
					<path id="XMLID_6_" d="M100.562,289.197c0,0-2.281,13.359-0.652,19.876c1.629,6.517,4.562,10.101,4.562,10.101
						s-8.146,12.056-6.517,22.157c1.629,10.101,5.865,11.404,5.865,11.404s-3.584,18.573,2.933,25.09
						c6.517,6.517,20.854,13.685,36.82,10.753s26.719-3.584,29.977-9.124c3.258-5.539,1.303-29.977,1.303-29.977
						s-0.652-27.045-1.303-43.663c-0.652-16.618-2.933-29.978-10.753-36.494c-7.82-6.517-42.359,3.584-52.786,10.427
						C99.584,286.591,100.562,289.197,100.562,289.197z"/>
				</defs>
				<use xlink:href="#XMLID_6_"  style="overflow:visible;fill:#C6FF00;"/>
				<clipPath id="XMLID_00000094606024904394851190000012372318029300219549_">
					<use xlink:href="#XMLID_6_"  style="overflow:visible;"/>
				</clipPath>
				<path style="opacity:0.3;clip-path:url(#XMLID_00000094606024904394851190000012372318029300219549_);" d="M102.882,289.197
					c0,0-2.281,13.359-0.652,19.876c1.629,6.517,4.562,10.101,4.562,10.101s-8.146,12.056-6.517,22.157
					c1.629,10.101,5.865,11.404,5.865,11.404s-3.584,18.573,2.933,25.09c6.517,6.517,20.854,13.685,36.82,10.753
					c15.966-2.932,26.719-3.584,29.977-9.124c3.258-5.539,1.303-29.977,1.303-29.977s-0.652-27.045-1.303-43.663
					c-0.652-16.618-2.933-29.978-10.753-36.494c-7.82-6.517-42.359,3.584-52.786,10.427
					C101.904,286.591,102.882,289.197,102.882,289.197z"/>
				
					<use xlink:href="#XMLID_6_"  style="overflow:visible;fill:none;stroke:#263238;stroke-width:1.1599;stroke-linecap:round;stroke-linejoin:round;stroke-miterlimit:10;"/>
			</g>
			
				<path style="fill:none;stroke:#263238;stroke-width:1.1599;stroke-linecap:round;stroke-linejoin:round;stroke-miterlimit:10;" d="
				M104.472,319.175c0,0,14.663,11.404,34.865,4.888"/>
			
				<path style="fill:none;stroke:#263238;stroke-width:1.1599;stroke-linecap:round;stroke-linejoin:round;stroke-miterlimit:10;" d="
				M103.82,352.737c0,0,16.618,16.292,43.989,0.652"/>
		</g>
		<g>
			<defs>
				<path id="XMLID_4_" d="M168.663,273.231c0,0-6.191-9.449-14.663-14.663c-8.472-5.214-30.303-9.124-39.101-10.753
					c-8.798-1.629-18.247-0.978-20.854,8.798c-2.607,9.775-2.281,26.067,0.326,33.236c2.607,7.168,13.36,11.404,21.831,6.517
					c8.472-4.888,31.932-23.786,40.078-24.764C164.427,270.625,168.011,276.815,168.663,273.231z"/>
			</defs>
			<use xlink:href="#XMLID_4_"  style="overflow:visible;fill:#757575;"/>
			<clipPath id="XMLID_00000068646837548575592170000005911802478665524886_">
				<use xlink:href="#XMLID_4_"  style="overflow:visible;"/>
			</clipPath>
			<path style="opacity:0.3;clip-path:url(#XMLID_00000068646837548575592170000005911802478665524886_);" d="M150.581,271.39
				c4.969-2.07-7.454,1.656-8.282,0.414c-0.828-1.242,8.696-7.454,10.767-8.282c2.071-0.828-12.009,2.07-11.595,0
				c0.414-2.071,13.666-2.485,4.555-4.555c-9.11-2.071-38.926-7.454-44.724-9.525c-0.58-0.207-0.983-0.418-1.252-0.631
				c-2.782,1.424-4.954,3.863-6.005,7.802c-2.607,9.775-2.281,26.067,0.326,33.236c2.269,6.239,10.707,10.25,18.443,7.965
				c3.584-2.902,6.9-6.743,12.506-10.273C136.501,280.501,145.611,273.461,150.581,271.39z"/>
			
				<use xlink:href="#XMLID_4_"  style="overflow:visible;fill:none;stroke:#263238;stroke-width:1.1599;stroke-linecap:round;stroke-linejoin:round;stroke-miterlimit:10;"/>
		</g>
		<g>
			<g>
				
					<path style="fill:#C6FF00;stroke:#263238;stroke-width:1.1599;stroke-linecap:round;stroke-linejoin:round;stroke-miterlimit:10;" d="
					M203.853,317.546c0,0,7.494,0.978,12.382,2.933c4.888,1.955,8.146,14.011,6.191,15.64c-1.955,1.629-5.865-0.326-5.865-0.326
					s-5.539,1.955-9.449,2.281C203.202,338.4,198.966,319.827,203.853,317.546z"/>
				
					<path style="fill:#757575;stroke:#263238;stroke-width:1.1599;stroke-linecap:round;stroke-linejoin:round;stroke-miterlimit:10;" d="
					M179.089,316.568c0,0,1.303,0,8.472-3.259c7.168-3.258,13.034-3.258,17.595,3.91c4.562,7.169,6.517,15.966,3.91,21.18
					c-2.607,5.214-12.382,8.798-17.595,8.798c-5.214,0-5.865-6.843-5.865-6.843s-0.652-10.753-3.91-14.663
					C178.438,321.782,177.786,317.546,179.089,316.568z"/>
				<g>
					<defs>
						<path id="XMLID_5_" d="M154.977,273.231c7.169-2.607,16.292-0.977,19.55,8.146c3.258,9.124,6.191,35.842,6.191,35.842
							s8.146,0.978,11.405,4.562c3.258,3.584,4.887,12.708,4.236,17.27c-0.652,4.562-12.056,13.034-25.09,13.359
							c-13.034,0.326-22.483-5.865-27.045-22.483c-4.562-16.618-2.754-41.973-2.754-41.973s1.656-7.454,4.141-9.111"/>
					</defs>
					<use xlink:href="#XMLID_5_"  style="overflow:visible;fill:#C6FF00;"/>
					<clipPath id="XMLID_00000088817943980446186370000010958296835846534018_">
						<use xlink:href="#XMLID_5_"  style="overflow:visible;"/>
					</clipPath>
					<path style="opacity:0.3;clip-path:url(#XMLID_00000088817943980446186370000010958296835846534018_);" d="M196.359,339.051
						c0.652-4.562-0.978-13.685-4.236-17.27c-0.131-0.144-0.281-0.276-0.426-0.411c0.271,1.852,0.571,4.708,0.709,8.824
						c0.643,19.127-26.081,15.928-31.472,2.072c-2.899-7.455-3.727-40.17-12.424-42.655c-5.013-1.432-6.721,2.501-7.271,6.091
						c-0.172,9.384,0.134,23.841,2.985,34.226c4.562,16.618,14.011,22.809,27.045,22.483
						C184.303,352.085,195.707,343.613,196.359,339.051z"/>
					
						<use xlink:href="#XMLID_5_"  style="overflow:visible;fill:none;stroke:#263238;stroke-width:1.1599;stroke-linecap:round;stroke-linejoin:round;stroke-miterlimit:10;"/>
				</g>
			</g>
			
				<path style="fill:none;stroke:#263238;stroke-width:1.1599;stroke-linecap:round;stroke-linejoin:round;stroke-miterlimit:10;" d="
				M180.719,317.22c0,0,2.54,11.872-10.54,18.412"/>
		</g>
	</g>
</g>
<g id="Text">
	<g>
		<g>
			<path style="fill:#263238;" d="M115.88,110.276c0-2.704,1.246-4.693,4.056-4.693c2.864,0,4.11,1.989,4.11,4.693v9.492
				c0,2.704-1.246,4.693-4.11,4.693c-2.81,0-4.056-1.988-4.056-4.693V110.276z M117.1,119.848c0,2.015,0.795,3.5,2.836,3.5
				c2.068,0,2.89-1.485,2.89-3.5v-9.651c0-2.015-0.821-3.5-2.89-3.5c-2.041,0-2.836,1.485-2.836,3.5V119.848z"/>
			<path style="fill:#263238;" d="M125.984,110.276c0-2.704,1.246-4.693,4.056-4.693c2.864,0,4.109,1.989,4.109,4.693v9.492
				c0,2.704-1.246,4.693-4.109,4.693c-2.81,0-4.056-1.988-4.056-4.693V110.276z M127.204,119.848c0,2.015,0.795,3.5,2.837,3.5
				c2.068,0,2.89-1.485,2.89-3.5v-9.651c0-2.015-0.821-3.5-2.89-3.5c-2.041,0-2.837,1.485-2.837,3.5V119.848z"/>
			<path style="fill:#263238;" d="M140.011,105.743c2.864,0,3.977,1.803,3.977,4.507v2.015c0,2.943-1.353,4.401-4.295,4.401h-2.306
				v7.636h-1.22v-18.559H140.011z M139.693,115.553c2.148,0,3.076-0.954,3.076-3.208v-2.174c0-2.015-0.689-3.314-2.757-3.314h-2.624
				v8.697H139.693z"/>
			<path style="fill:#263238;" d="M153.641,110.224v0.397h-1.167v-0.477c0-1.962-0.742-3.447-2.757-3.447
				c-2.015,0-2.757,1.458-2.757,3.42c0,4.507,6.708,4.587,6.708,9.704c0,2.678-1.167,4.64-4.004,4.64
				c-2.836,0-4.003-1.962-4.003-4.64v-0.955h1.167v1.034c0,1.989,0.768,3.42,2.81,3.42c2.041,0,2.81-1.432,2.81-3.42
				c0-4.454-6.708-4.534-6.708-9.704c0-2.784,1.22-4.587,3.951-4.614C152.502,105.583,153.641,107.545,153.641,110.224z"/>
			<path style="fill:#263238;" d="M156.693,121.968v2.333h-1.194v-2.333H156.693z"/>
			<path style="fill:#263238;" d="M160.008,121.968v2.333h-1.194v-2.333H160.008z"/>
			<path style="fill:#263238;" d="M163.323,121.968v2.333h-1.194v-2.333H163.323z"/>
		</g>
		<g>
			<path style="fill:#263238;" d="M119.804,132.746c2.863,0,3.977,1.803,3.977,4.507v2.015c0,2.943-1.353,4.401-4.296,4.401h-2.306
				v7.636h-1.22v-18.559H119.804z M119.486,142.556c2.148,0,3.076-0.954,3.076-3.208v-2.174c0-2.015-0.689-3.314-2.757-3.314h-2.625
				v8.697H119.486z"/>
			<path style="fill:#263238;" d="M127.044,147.196l-0.928,4.109h-1.113l4.056-18.586h1.777l4.136,18.586h-1.22l-0.928-4.109
				H127.044z M127.23,146.135h5.409l-2.731-12.01L127.23,146.135z"/>
			<path style="fill:#263238;" d="M144.732,137.28v1.378h-1.167V137.2c0-1.989-0.769-3.5-2.81-3.5s-2.81,1.512-2.81,3.5v9.651
				c0,1.988,0.769,3.473,2.81,3.473s2.81-1.485,2.81-3.473v-4.004H141.1v-1.113h3.633v5.037c0,2.678-1.167,4.693-4.004,4.693
				c-2.836,0-4.003-2.015-4.003-4.693v-9.492c0-2.678,1.167-4.693,4.003-4.693C143.566,132.587,144.732,134.602,144.732,137.28z"/>
			<path style="fill:#263238;" d="M153.059,141.336v1.114h-5.064v7.742h6.098v1.113h-7.318v-18.559h7.318v1.113h-6.098v7.477
				H153.059z"/>
			<path style="fill:#263238;" d="M161.307,151.305h-1.113v-18.559h1.591l5.568,15.669v-15.669h1.113v18.559h-1.352l-5.807-16.544
				V151.305z"/>
			<path style="fill:#263238;" d="M170.483,137.28c0-2.704,1.246-4.693,4.056-4.693c2.864,0,4.11,1.988,4.11,4.693v9.492
				c0,2.704-1.246,4.693-4.11,4.693c-2.81,0-4.056-1.988-4.056-4.693V137.28z M171.703,146.851c0,2.015,0.795,3.5,2.836,3.5
				c2.068,0,2.89-1.485,2.89-3.5V137.2c0-2.015-0.821-3.5-2.89-3.5c-2.041,0-2.836,1.485-2.836,3.5V146.851z"/>
			<path style="fill:#263238;" d="M183.794,151.305v-17.446h-3.764v-1.113h8.775v1.113h-3.791v17.446H183.794z"/>
			<path style="fill:#263238;" d="M200.447,141.787v1.114h-4.798v8.405h-1.22v-18.559h7.052v1.113h-5.832v7.927H200.447z"/>
			<path style="fill:#263238;" d="M203.26,137.28c0-2.704,1.246-4.693,4.056-4.693c2.864,0,4.11,1.988,4.11,4.693v9.492
				c0,2.704-1.246,4.693-4.11,4.693c-2.81,0-4.056-1.988-4.056-4.693V137.28z M204.48,146.851c0,2.015,0.795,3.5,2.836,3.5
				c2.068,0,2.89-1.485,2.89-3.5V137.2c0-2.015-0.821-3.5-2.89-3.5c-2.041,0-2.836,1.485-2.836,3.5V146.851z"/>
			<path style="fill:#263238;" d="M214.61,146.825c0,1.988,0.744,3.526,2.785,3.526c2.041,0,2.783-1.538,2.783-3.526v-14.079h1.141
				v14.026c0,2.651-1.113,4.693-3.951,4.693c-2.837,0-3.978-2.042-3.978-4.693v-14.026h1.22V146.825z"/>
			<path style="fill:#263238;" d="M224.528,151.305h-1.113v-18.559h1.591l5.567,15.669v-15.669h1.114v18.559h-1.352l-5.807-16.544
				V151.305z"/>
			<path style="fill:#263238;" d="M237.867,132.746c2.864,0,4.11,1.882,4.11,4.614v9.333c0,2.73-1.246,4.613-4.11,4.613h-4.084
				v-18.559H237.867z M237.84,150.192c2.068,0,2.917-1.405,2.917-3.447v-9.439c0-2.042-0.875-3.447-2.917-3.447h-2.836v16.332
				H237.84z"/>
		</g>
	</g>
	<g>
		<path style="fill:#263238;" d="M299.571,323.086l13.208-31.235h7.924v31.235h3.434v6.603h-3.434v8.387h-7.132v-8.387h-14V323.086z
			 M313.57,323.086v-17.367l-7.33,17.367H313.57z"/>
		<path style="fill:#263238;" d="M326.844,302.945c0-7.396,3.897-11.622,11.029-11.622c7.132,0,11.027,4.226,11.027,11.622v24.037
			c0,7.396-3.896,11.622-11.027,11.622c-7.132,0-11.029-4.226-11.029-11.622V302.945z M334.108,327.444
			c0,3.302,1.452,4.557,3.764,4.557c2.311,0,3.764-1.255,3.764-4.557v-24.961c0-3.302-1.453-4.557-3.764-4.557
			c-2.312,0-3.764,1.255-3.764,4.557V327.444z"/>
		<path style="fill:#263238;" d="M351.87,323.086l13.208-31.235h7.924v31.235h3.434v6.603h-3.434v8.387h-7.132v-8.387h-14V323.086z
			 M365.87,323.086v-17.367l-7.33,17.367H365.87z"/>
	</g>
</g>
</svg>
