<svg xmlns="http://www.w3.org/2000/svg" version="1.1" xmlns:xlink="http://www.w3.org/1999/xlink" width="512" height="512" x="0" y="0" viewBox="0 0 512 512" style="enable-background:new 0 0 512 512" xml:space="preserve" fill-rule="evenodd" class=""><g><path d="M256 0c141.39 0 256 114.61 256 256S397.39 512 256 512 0 397.39 0 256 114.61 0 256 0zm57.5 106.01c.01 4.58 1.36 70.83 70.87 74.96 0 19.1.02 32.95.02 51.18-5.26.3-45.76-2.64-70.97-25.12l-.08 99.64c.96 69.16-49.93 111.24-116.46 96.7-114.71-34.31-76.59-204.44 38.59-186.24 0 54.93.03-.01.03 54.93-47.58-7-63.5 32.58-50.85 60.93 11.5 25.8 58.88 31.39 75.41-5.01 1.87-7.12 2.8-15.25 2.8-24.37V105.76z" fill="#ffffff" opacity="1" data-original="#000000" class=""></path></g></svg>