<svg xmlns="http://www.w3.org/2000/svg" version="1.1" xmlns:xlink="http://www.w3.org/1999/xlink" width="512" height="512" x="0" y="0" viewBox="0 0 176 176" style="enable-background:new 0 0 512 512" xml:space="preserve" class=""><g><g data-name="Layer 2"><path d="M173 31.47A32 32 0 0 0 144.52 3a530 530 0 0 0-113 0A32 32 0 0 0 3 31.47a532.69 532.69 0 0 0 0 113.05A32 32 0 0 0 31.48 173a530 530 0 0 0 113 0A32 32 0 0 0 173 144.52a532.69 532.69 0 0 0 0-113.05zm-36.62 45.2h-8.58a34.72 34.72 0 0 1-18-5v36.23a35.1 35.1 0 1 1-35.1-35.09h8.6v17.11h-8.57a18 18 0 1 0 18 18V33h17.13v8.58a18 18 0 0 0 18 18h8.57z" data-name="14.tiktok" fill="#fefefe" opacity="1" data-original="#000000" class=""></path></g></g></svg>