<?xml version="1.0" encoding="UTF-8"?>
<!DOCTYPE svg PUBLIC "-//W3C//DTD SVG 1.1//EN" "http://www.w3.org/Graphics/SVG/1.1/DTD/svg11.dtd">
<!-- Creator: CorelDRAW -->
<svg xmlns="http://www.w3.org/2000/svg" xml:space="preserve" width="9.1433mm" height="7.54mm" version="1.1" style="shape-rendering:geometricPrecision; text-rendering:geometricPrecision; image-rendering:optimizeQuality; fill-rule:evenodd; clip-rule:evenodd"
viewBox="0 0 100.55 82.92"
 xmlns:xlink="http://www.w3.org/1999/xlink"
 xmlns:xodm="http://www.corel.com/coreldraw/odm/2003">
 <defs>
  <style type="text/css">
   <![CDATA[
    .fil0 {fill:#132F46}
   ]]>
  </style>
 </defs>
 <g id="Layer_x0020_1">
  <metadata id="CorelCorpID_0Corel-Layer"/>
  <g id="_2682791107344">
   <path class="fil0" d="M3.93 7.86c0,-2.26 1.33,-3.93 3.53,-3.93l85.62 0c2.2,0 3.53,1.66 3.53,3.93l0 18.85 -92.69 0 0 -18.85zm-3.93 -0.98l0 69.13c0,1.92 1.05,3.65 2.01,4.67 0.82,0.87 2.88,2.2 4.47,2.2l34.76 0c1.26,0 1.77,-0.96 1.77,-2.16 0,-1.93 -1.79,-1.77 -3.73,-1.77l-28.08 0c-2.93,0 -7.27,0.79 -7.27,-3.93l0 -44.38 92.69 0 0 44.38c0,4.77 -4.45,3.93 -7.46,3.93l-28.48 0c-1.95,0 -4.32,-0.5 -4.32,2.16 0,0.97 0.8,1.77 1.77,1.77l35.94 0c2.84,0 6.48,-3.24 6.48,-6.87l0 -69.13c0,-1.95 -1.04,-3.61 -2.01,-4.67 -0.83,-0.9 -2.85,-2.2 -4.47,-2.2l-87.59 0c-2.84,0 -6.48,3.24 -6.48,6.87z"/>
   <path class="fil0" d="M26.32 58.33c1.38,0.32 3.14,0.32 4.52,0 0.35,4.22 6.49,3.74 9.09,6.23 0.85,0.81 1.68,1.86 1.71,3.39l-26.12 0c0.03,-1.54 0.86,-2.58 1.71,-3.39 1.86,-1.78 5,-1.93 7.04,-3.17 0.96,-0.58 1.94,-1.75 2.05,-3.06zm-2.75 -8.25l0 -4.12c0,-3.35 4.73,-6.23 8.37,-3.26 2.17,1.77 1.65,4.51 1.65,7.39 0,2.38 -2.61,4.52 -4.91,4.52 -2.51,0 -5.11,-2.08 -5.11,-4.52zm12.57 -8.64c1.59,0 4.96,-0.34 6.09,0.2 0.52,1.09 0.2,16.89 0.2,19.64 -5.77,-3.86 -7.58,-1.8 -7.86,-5.11 0.59,-0.16 0.24,0.07 0.71,-0.46 3.3,-3.7 3.11,-10.9 0.86,-14.27zm-16.69 4.91c0,2.8 -0.23,4.52 0.92,7.13 0.39,0.88 1.28,2.44 2.22,2.69 -0.1,1.17 -0.09,1.63 -1.11,2.03 -3.75,1.51 -3.22,0.71 -6.75,3.07 0,-2.75 -0.33,-18.55 0.2,-19.64 1.13,-0.54 4.5,-0.2 6.09,-0.2 -0.84,1.25 -1.57,2.83 -1.57,4.91zm-8.84 -3.93l0 24.55c0,2.77 2.32,4.91 4.52,4.91l26.9 0c2.31,0 4.52,-2.38 4.52,-4.71l0 -24.74c0,-3.54 -2.78,-5.11 -6.09,-5.11l-23.76 0c-3.29,0 -6.09,1.54 -6.09,5.11z"/>
   <path class="fil0" d="M53.02 39.28c0,1.33 0.66,2.16 1.96,2.16l32.4 0c2.32,0 3.3,-4.12 -0.98,-4.12l-30.24 0c-1.32,0 -3.14,0.21 -3.14,1.96z"/>
   <path class="fil0" d="M49.29 12.37c0,4.67 7.07,4.47 7.07,6.09 0,0.61 -0.97,0.98 -1.57,0.98 -2.36,0 -2.36,-1.77 -4.32,-1.77 -1.82,0 -3.14,2.98 0.65,4.85 2.52,1.25 5.56,1.35 7.65,-0.48 2.38,-2.07 2.42,-5.91 -0.97,-7.78 -1.24,-0.68 -2.35,-1.01 -3.59,-1.52 -0.7,-0.28 -0.72,-0.11 -0.8,-0.97 1.5,-0.84 3.41,0.79 4.71,0.79 2.75,0 2.86,-5.11 -3.73,-5.11 -2.85,0 -5.11,2.05 -5.11,4.91z"/>
   <path class="fil0" d="M69.52 14.73l0.79 1.77 -1.37 0c0.18,-0.76 0.43,-1.1 0.59,-1.77zm-6.68 6.87c0,1.26 0.96,1.77 2.16,1.77 1.6,0 1.79,-1.68 2.36,-2.75l4.52 0c0.96,4.11 3.99,2.94 4.39,1.23 0.23,-0.99 -3.23,-9.55 -3.83,-11.02 -0.54,-1.34 -0.82,-3.37 -2.72,-3.37 -1.81,0 -2.15,1.07 -2.67,2.44 -0.52,1.38 -0.95,2.56 -1.46,3.84 -0.49,1.23 -2.75,6.89 -2.75,7.86z"/>
   <path class="fil0" d="M30.24 23.37c2.02,0 2.24,-0.51 2.92,-2.58 0.42,-1.27 0.8,-2.41 1.23,-3.68 0.62,-1.85 2.33,-6.19 2.33,-7.88 0,-1.06 -0.97,-1.77 -1.96,-1.77 -1.86,0 -2.1,2.07 -2.58,3.51 -0.47,1.42 -1.2,3.27 -1.55,4.74 -0.03,-0.04 -0.06,-0.15 -0.07,-0.13l-0.79 -2.16c-1,-3.01 -1.53,-5.97 -3.66,-5.97 -1.63,0 -2.16,1.48 -1.5,3.46 0.54,1.63 1.03,2.87 1.57,4.52 0.53,1.58 1.01,2.82 1.52,4.37 0.44,1.32 0.82,3.56 2.53,3.56z"/>
   <path class="fil0" d="M67.36 49.49c0,1.6 0.4,2.55 2.75,2.55l16.69 0c3.67,0 2.93,-4.12 0.59,-4.12l-18.07 0c-1.06,0 -1.96,0.97 -1.96,1.57z"/>
   <path class="fil0" d="M69.52 69.72c0,1.2 0.51,2.16 1.77,2.16l16.3 0c2.3,0 2.4,-3.93 0,-3.93l-16.3 0c-0.97,0 -1.77,0.8 -1.77,1.77z"/>
   <path class="fil0" d="M40.46 9.82c0,2.49 -0.39,11.53 0.42,12.74 1.04,1.56 3.7,0.87 3.7,-1.15l0 -11.59c0,-3.16 -4.12,-3.16 -4.12,0z"/>
   <path class="fil0" d="M53.02 49.69c0,3.08 3.06,2.36 7.27,2.36 3.22,0 3.33,-4.12 0.2,-4.12 -3.24,0 -7.46,-0.71 -7.46,1.77z"/>
   <path class="fil0" d="M47.72 80.71c0,2.94 3.93,2.94 3.93,0 0,-2.33 -3.93,-2.4 -3.93,0z"/>
  </g>
 </g>
</svg>
